<svg xmlns="http://www.w3.org/2000/svg" width="158" height="44" fill="none" viewBox="0 0 158 44">
    <path fill="#031F73" d="M25.19 2.248c0 1.241-1.046 2.248-2.336 2.248-1.29 0-2.336-1.007-2.336-2.248C20.518 1.006 21.564 0 22.854 0c1.29 0 2.335 1.006 2.335 2.248z"/>
    <path fill="#E98300" d="M34.553 4.376c0 1.242-1.046 2.248-2.336 2.248-1.29 0-2.335-1.006-2.335-2.248 0-1.241 1.045-2.248 2.335-2.248.62 0 1.214.237 1.652.659.438.421.684.993.684 1.59z"/>
    <path fill="#031F73" d="M42.085 10.678c0 1.241-1.046 2.248-2.336 2.248-1.29 0-2.336-1.007-2.336-2.248 0-1.241 1.046-2.248 2.336-2.248 1.29.002 2.334 1.007 2.336 2.248zM45.662 19.643c0 1.241-1.045 2.247-2.335 2.247s-2.336-1.006-2.336-2.247c0-1.242 1.046-2.248 2.336-2.248.62 0 1.213.237 1.651.658.438.422.684.994.684 1.59zM44.58 28.853c0 1.242-1.047 2.248-2.337 2.248-1.29 0-2.335-1.006-2.335-2.248 0-1.241 1.045-2.248 2.335-2.248.62 0 1.214.237 1.652.659.438.421.684.993.684 1.59zM38.993 36.815c0 1.242-1.045 2.248-2.335 2.248s-2.336-1.007-2.336-2.248c0-1.241 1.046-2.248 2.336-2.248.62 0 1.213.237 1.651.659.438.421.684.993.684 1.59z"/>
    <path fill="#C60C30" d="M30.182 41.337c0 1.242-1.046 2.248-2.336 2.248-1.29 0-2.336-1.006-2.336-2.248 0-1.241 1.046-2.248 2.336-2.248 1.29 0 2.336 1.007 2.336 2.248z"/>
    <path fill="#031F73" d="M20.542 41.427c0 1.24-1.045 2.247-2.335 2.248-1.289 0-2.335-1.005-2.336-2.246-.002-1.24 1.042-2.248 2.332-2.25.62 0 1.215.236 1.654.657.439.422.685.994.685 1.59zM11.648 37.05c0 1.242-1.046 2.249-2.336 2.249-1.29 0-2.336-1.007-2.336-2.248 0-1.242 1.046-2.248 2.336-2.248 1.29.002 2.334 1.007 2.336 2.248zM5.924 29.178c0 .91-.57 1.73-1.442 2.077a2.403 2.403 0 0 1-2.545-.487 2.186 2.186 0 0 1-.507-2.45c.362-.84 1.213-1.387 2.158-1.387 1.29 0 2.336 1.006 2.336 2.247zM4.671 19.988c0 1.241-1.045 2.247-2.334 2.248C1.047 22.236 0 21.23 0 19.99c-.001-1.24 1.043-2.248 2.332-2.25.62 0 1.215.236 1.654.657.439.422.685.994.685 1.591zM8.08 10.977c0 1.241-1.046 2.248-2.336 2.248-1.29 0-2.335-1.007-2.335-2.248 0-1.242 1.045-2.248 2.335-2.248S8.08 9.735 8.08 10.977zM15.502 4.542c0 .91-.57 1.729-1.442 2.077a2.403 2.403 0 0 1-2.546-.487 2.187 2.187 0 0 1-.506-2.45c.361-.84 1.213-1.388 2.158-1.388 1.289.002 2.334 1.007 2.335 2.248zM24.948 8.822c0 1.113-.938 2.015-2.094 2.015-1.157 0-2.095-.902-2.095-2.015s.938-2.015 2.095-2.015c.555-.001 1.088.21 1.481.589.393.378.614.891.613 1.426zM18.49 10.37c0 1.112-.938 2.015-2.095 2.015-1.157 0-2.094-.903-2.094-2.016s.937-2.015 2.094-2.015c1.157 0 2.094.902 2.094 2.015zM31.192 10.266c0 1.113-.937 2.016-2.094 2.016-1.156 0-2.094-.903-2.094-2.016s.938-2.015 2.094-2.015c1.157 0 2.095.902 2.095 2.015zM36.216 14.47c0 .815-.51 1.55-1.293 1.862a2.155 2.155 0 0 1-2.282-.437 1.96 1.96 0 0 1-.454-2.197c.324-.753 1.088-1.244 1.935-1.244.556 0 1.089.211 1.482.59.393.378.613.89.612 1.426z"/>
    <path fill="#7AB800" d="M38.61 20.446c0 1.113-.937 2.016-2.094 2.016-1.157 0-2.094-.903-2.094-2.016s.938-2.015 2.094-2.015c1.157 0 2.094.902 2.094 2.015z"/>
    <path fill="#031F73" d="M25.448 22.08c.002 1.011-.63 1.924-1.601 2.312a2.672 2.672 0 0 1-2.833-.54 2.432 2.432 0 0 1-.564-2.725c.402-.935 1.35-1.544 2.4-1.544 1.434 0 2.596 1.117 2.598 2.497zM37.886 26.592c0 1.113-.938 2.015-2.094 2.015-1.157 0-2.095-.902-2.095-2.015s.938-2.015 2.095-2.015c1.156 0 2.094.902 2.094 2.015zM34.16 31.908c0 .815-.51 1.55-1.293 1.862a2.154 2.154 0 0 1-2.283-.437 1.96 1.96 0 0 1-.453-2.196c.324-.754 1.087-1.245 1.934-1.245.556 0 1.09.212 1.482.59.393.378.613.89.613 1.426zM28.28 34.92c0 1.112-.937 2.015-2.094 2.015-1.156 0-2.094-.903-2.094-2.016s.938-2.015 2.095-2.015c.555 0 1.088.212 1.48.59.393.378.614.89.614 1.425zM21.891 34.982c0 1.113-.938 2.016-2.094 2.016-1.157 0-2.094-.903-2.094-2.016s.937-2.015 2.094-2.015c1.156 0 2.094.902 2.094 2.015z"/>
    <path fill="#FCD900" d="M15.915 32.06c.002.816-.508 1.552-1.29 1.865a2.155 2.155 0 0 1-2.284-.435 1.96 1.96 0 0 1-.455-2.197c.324-.753 1.088-1.245 1.935-1.245 1.155 0 2.093.9 2.094 2.012z"/>
    <path fill="#031F73" d="M12.093 26.811c0 1.113-.938 2.016-2.095 2.016-1.156 0-2.094-.903-2.094-2.016s.938-2.015 2.094-2.015c.556 0 1.088.212 1.481.59s.614.89.614 1.425zM11.254 20.675c0 1.113-.937 2.016-2.094 2.016-1.157 0-2.094-.903-2.094-2.016s.937-2.015 2.094-2.015c1.157 0 2.094.902 2.094 2.015z"/>
    <path fill="#93509E" d="M13.538 14.656c0 1.113-.937 2.015-2.094 2.015-1.157 0-2.094-.902-2.094-2.015s.938-2.016 2.094-2.016c.556 0 1.09.211 1.482.59.393.378.613.89.612 1.426z"/>
    <path fill="#031F73" d="M24.693 15.217c0 .977-.824 1.77-1.84 1.77-1.015 0-1.838-.793-1.838-1.77 0-.978.823-1.77 1.839-1.77 1.015 0 1.839.792 1.839 1.77zM30.216 17.763c0 .978-.823 1.77-1.839 1.77-1.015 0-1.839-.792-1.839-1.77 0-.977.824-1.77 1.84-1.77 1.015 0 1.838.793 1.838 1.77zM31.63 23.497c0 .978-.823 1.77-1.838 1.77-1.016 0-1.84-.792-1.84-1.77 0-.977.824-1.77 1.84-1.77.487 0 .955.187 1.3.52.345.331.539.781.539 1.25zM27.811 28.249a1.77 1.77 0 0 1-1.136 1.635 1.891 1.891 0 0 1-2.004-.385 1.721 1.721 0 0 1-.396-1.93c.285-.66.957-1.091 1.7-1.09.488 0 .956.187 1.3.519.344.332.537.782.536 1.25zM21.69 28.275c0 .978-.823 1.77-1.838 1.77-1.016 0-1.839-.792-1.839-1.77 0-.977.823-1.77 1.839-1.77 1.015 0 1.839.793 1.839 1.77zM17.775 23.614a1.77 1.77 0 0 1-1.136 1.635 1.892 1.892 0 0 1-2.004-.385 1.721 1.721 0 0 1-.397-1.93c.286-.661.957-1.091 1.702-1.09 1.014.002 1.835.794 1.835 1.77zM19.09 17.866a1.77 1.77 0 0 1-1.137 1.636 1.891 1.891 0 0 1-2.004-.386 1.721 1.721 0 0 1-.396-1.93 1.842 1.842 0 0 1 1.7-1.09c.488 0 .956.187 1.3.52.344.331.537.781.536 1.25z"/>
    <path fill="#031F73" fill-rule="evenodd" d="M80.364 7.296v28.595h-4.372V20.776c0-1.715.044-4.207.085-5.022-.339.815-1.19 2.86-1.912 4.49L66.95 36.342l-7.117-16.096a236.73 236.73 0 0 1-1.878-4.418l-.03-.073c.04.815.084 3.307.084 5.022v15.115h-4.202V7.296h4.572l6.676 15.239.223.504c.678 1.535 1.466 3.32 1.81 4.388.424-1.178 1.275-3.22 1.997-4.892l6.534-15.239h4.745zm25.212 28.595V7.296h-4.457V18.86H87.451V7.296h-4.457v28.595h4.457V23.148h13.668V35.89h4.457zm15.675-28.595c5.179 0 9.551 2.668 9.551 8.54h-.014c0 4.572-2.504 7.393-6.537 8.372l6.07 11.683h-5.135l-5.901-11.315h-6.707v11.315h-4.372V7.296h13.045zm25.924 0L158 35.897l-4.758-.006-2.505-6.781h-11.862l-2.491 6.78h-4.626l10.706-28.594h4.711zm-6.945 17.981h9.151l-2.365-6.565-.333-.94c-.711-2.001-1.627-4.584-1.918-5.636-.339 1.227-1.4 4.495-2.162 6.618l-2.373 6.523zm-13.939-9.315c0 3.105-2.081 4.567-5.053 4.567h-8.66V11.34h8.673c3.013 0 5.053 1.63 5.053 4.615l-.013.006z" clip-rule="evenodd"/>
</svg>
